<svg width="450" height="450" fill="none" xmlns="http://www.w3.org/2000/svg"><g clip-path="url(#a)"><path fill="#2B2A33" d="M0 0h39v39H0zm0 154h39v39H0zm0 154h39v39H0zM0 51h39v40H0zm0 154h39v40H0zm0 154h39v40H0zm0-256h39v39H0zm0 154h39v39H0zm0 154h39v39H0zM154 0h39v39h-39zm0 154h39v39h-39zm0 154h39v39h-39z"/><path fill="#fff" d="M154 51h39v40h-39z"/><path fill="#2B2A33" d="M154 205h39v40h-39z"/><path fill="#fff" d="M154 359h39v40h-39z"/><path fill="#2B2A33" d="M154 103h39v39h-39zm0 154h39v39h-39zm0 154h39v39h-39zM308 0h39v39h-39zm0 154h39v39h-39zm0 154h39v39h-39z"/><path fill="#fff" d="M308 51h39v40h-39z"/><path fill="#2B2A33" d="M308 205h39v40h-39zm0 154h39v40h-39zm0-256h39v39h-39zm0 154h39v39h-39zm0 154h39v39h-39zM51 0h40v39H51zm0 154h40v39H51zm0 154h40v39H51z"/><path fill="#fff" d="M51 51h40v40H51z"/><path fill="#2B2A33" d="M51 205h40v40H51zm0 154h40v40H51z"/><path fill="#fff" d="M51 103h40v39H51z"/><path fill="#2B2A33" d="M51 257h40v39H51zm0 154h40v39H51zM205 0h40v39h-40z"/><path fill="#fff" d="M205 154h40v39h-40zm0 154h40v39h-40zm0-257h40v40h-40zm0 154h40v40h-40zm0 154h40v40h-40zm0-256h40v39h-40zm0 154h40v39h-40z"/><path fill="#2B2A33" d="M205 411h40v39h-40zM359 0h40v39h-40zm0 154h40v39h-40zm0 154h40v39h-40z"/><path fill="#fff" d="M359 51h40v40h-40z"/><path fill="#2B2A33" d="M359 205h40v40h-40zm0 154h40v40h-40z"/><path fill="#fff" d="M359 103h40v39h-40z"/><path fill="#2B2A33" d="M359 257h40v39h-40zm0 154h40v39h-40zM103 0h39v39h-39zm0 154h39v39h-39zm0 154h39v39h-39z"/><path fill="#fff" d="M103 51h39v40h-39z"/><path fill="#2B2A33" d="M103 205h39v40h-39zm0 154h39v40h-39zm0-256h39v39h-39zm0 154h39v39h-39zm0 154h39v39h-39zM257 0h39v39h-39zm0 154h39v39h-39zm0 154h39v39h-39z"/><path fill="#fff" d="M257 51h39v40h-39z"/><path fill="#2B2A33" d="M257 205h39v40h-39z"/><path fill="#fff" d="M257 359h39v40h-39z"/><path fill="#2B2A33" d="M257 103h39v39h-39zm0 154h39v39h-39zm0 154h39v39h-39zM411 0h39v39h-39zm0 154h39v39h-39zm0 154h39v39h-39zm0-257h39v40h-39zm0 154h39v40h-39zm0 154h39v40h-39zm0-256h39v39h-39zm0 154h39v39h-39zm0 154h39v39h-39z"/></g><defs><clipPath id="a"><path fill="#fff" d="M0 0h450v450H0z"/></clipPath></defs></svg>